<svg xmlns="http://www.w3.org/2000/svg" viewBox="0 0 24 24" fill="currentColor"><path d="M11 2a1 1 0 1 1 2 0v2.126l1.658-.957a1 1 0 1 1 1 1.732L13 6.732V9h2.268l1.831-1.058a1 1 0 0 1 1 1.732L16.732 11H19a1 1 0 1 1 0 2h-2.268l1.367.789 1.732 1a1 1 0 0 1-1 1.732L15.268 15H13v2.268l1.058 1.831a1 1 0 0 1-1.732 1L12 18.268 11.674 20l-.6 1.039a1 1 0 1 1-1.732-1L10 17.268V15H7.732l-2.099 1.211a1 1 0 1 1-1-1.732L6.732 13H5a1 1 0 1 1 0-2h1.732L4.633 9.211a1 1 0 1 1 1-1.732L7.732 9H10V6.732L8.342 5.9a1 1 0 1 1 1-1.732L11 4.126V2Z"/></svg>



