<svg xmlns="http://www.w3.org/2000/svg" viewBox="0 0 24 24" fill="currentColor"><path d="M12 4a1 1 0 0 0 1-1V2a1 1 0 1 0-2 0v1a1 1 0 0 0 1 1Zm5.657 2.343a1 1 0 0 0 1.414-1.414l-.707-.707a1 1 0 0 0-1.414 1.414l.707.707ZM22 13a1 1 0 1 0 0-2h-1a1 1 0 1 0 0 2h1ZM6.343 6.343a1 1 0 0 0 0-1.414L5.636 4.222a1 1 0 1 0-1.414 1.414l.707.707a1 1 0 0 0 1.414 0ZM12 20a1 1 0 0 0-1 1v1a1 1 0 1 0 2 0v-1a1 1 0 0 0-1-1Zm7.071-2.929a1 1 0 0 0-1.414 0l-.707.707a1 1 0 0 0 1.414 1.414l.707-.707a1 1 0 0 0 0-1.414ZM4 13a1 1 0 1 0 0-2H3a1 1 0 1 0 0 2h1Zm2.343 5.657a1 1 0 0 0-1.414 1.414l.707.707a1 1 0 0 0 1.414-1.414l-.707-.707ZM12 7a5 5 0 1 0 0 10 5 5 0 1 0 0-10Z"/></svg>



