<svg xmlns="http://www.w3.org/2000/svg" viewBox="0 0 24 24" fill="#ffb703"><path d="M12 7a5 5 0 1 1 0 10 5 5 0 0 1 0-10Zm0-3a1 1 0 0 0 1-1V2a1 1 0 1 0-2 0v1a1 1 0 0 0 1 1Zm0 16a1 1 0 0 0-1 1v1a1 1 0 1 0 2 0v-1a1 1 0 0 0-1-1ZM4 11H3a1 1 0 1 0 0 2h1a1 1 0 1 0 0-2Zm17 0h-1a1 1 0 1 0 0 2h1a1 1 0 1 0 0-2Zm-2.95-5.536-.707-.707a1 1 0 1 0-1.414 1.414l.707.707a1 1 0 0 0 1.414-1.414Zm-11.314 11.314-.707-.707a1 1 0 1 0-1.414 1.414l.707.707a1 1 0 1 0 1.414-1.414Zm11.314 1.414.707-.707a1 1 0 1 0-1.414-1.414l-.707.707a1 1 0 1 0 1.414 1.414Zm-11.314-11.314.707-.707A1 1 0 1 0 6.05 3.343l-.707.707A1 1 0 1 0 6.757 6.05Z"/></svg>



